<?xml version="1.0" encoding="UTF-8"?>
<svg xmlns="http://www.w3.org/2000/svg" width="749" height="192" viewBox="0 0 749 192" fill="none">
  <path d="M304.44 171.1L285.4 150.7C284.607 150.813 283.757 150.87 282.85 150.87C281.943 150.983 281.093 151.04 280.3 151.04C268.173 151.04 257.69 148.83 248.85 144.41C240.123 139.877 233.38 133.133 228.62 124.18C223.973 115.227 221.65 104.063 221.65 90.69C221.65 76.9767 224.03 65.7 228.79 56.86C233.55 47.9067 240.407 41.2767 249.36 36.97C258.313 32.55 268.967 30.34 281.32 30.34C293.9 30.34 304.61 32.55 313.45 36.97C322.403 41.2767 329.26 47.9067 334.02 56.86C338.78 65.7 341.16 76.9767 341.16 90.69C341.16 104.857 338.553 116.473 333.34 125.54C328.127 134.607 320.76 141.293 311.24 145.6L337.42 171.1H304.44ZM281.32 130.3C286.873 130.3 291.747 129.507 295.94 127.92C300.133 126.333 303.647 123.953 306.48 120.78C309.313 117.607 311.467 113.753 312.94 109.22C314.413 104.573 315.15 99.3033 315.15 93.41V88.14C315.15 82.1333 314.413 76.8067 312.94 72.16C311.467 67.5133 309.313 63.66 306.48 60.6C303.647 57.4267 300.133 55.0467 295.94 53.46C291.747 51.8733 286.873 51.08 281.32 51.08C275.88 51.08 271.063 51.8733 266.87 53.46C262.677 55.0467 259.163 57.4267 256.33 60.6C253.497 63.66 251.343 67.5133 249.87 72.16C248.51 76.8067 247.83 82.1333 247.83 88.14V93.41C247.83 99.3033 248.51 104.573 249.87 109.22C251.343 113.753 253.497 117.607 256.33 120.78C259.163 123.953 262.677 126.333 266.87 127.92C271.063 129.507 275.88 130.3 281.32 130.3ZM359.685 46.49V26.09H383.315V46.49H359.685ZM359.685 149V59.58H383.315V149H359.685ZM433.907 151.04C424.84 151.04 417.644 148.547 412.317 143.56C406.99 138.573 404.327 130.527 404.327 119.42V59.58H427.957V115.51C427.957 118.457 428.297 120.95 428.977 122.99C429.657 124.917 430.62 126.503 431.867 127.75C433.227 128.997 434.87 129.903 436.797 130.47C438.724 131.037 440.877 131.32 443.257 131.32C446.77 131.32 449.944 130.47 452.777 128.77C455.61 127.07 457.82 124.747 459.407 121.8C460.994 118.74 461.787 115.34 461.787 111.6V59.58H485.417V149H466.037L464.337 136.76H463.147C460.994 139.593 458.444 142.087 455.497 144.24C452.664 146.393 449.434 148.037 445.807 149.17C442.18 150.417 438.214 151.04 433.907 151.04ZM507.107 179.26V59.58H526.487L528.527 71.65H529.717C532.663 66.7767 536.517 63.2067 541.277 60.94C546.037 58.6733 551.307 57.54 557.087 57.54C564.567 57.54 570.97 59.1833 576.297 62.47C581.737 65.7567 585.873 70.8567 588.707 77.77C591.653 84.6833 593.127 93.58 593.127 104.46C593.127 115 591.653 123.727 588.707 130.64C585.76 137.553 581.623 142.71 576.297 146.11C571.083 149.397 564.963 151.04 557.937 151.04C554.083 151.04 550.513 150.587 547.227 149.68C543.94 148.887 540.993 147.583 538.387 145.77C535.78 143.957 533.57 141.747 531.757 139.14H530.737V179.26H507.107ZM549.777 131.66C554.537 131.66 558.277 130.753 560.997 128.94C563.83 127.013 565.87 124.18 567.117 120.44C568.363 116.587 568.987 111.883 568.987 106.33V102.42C568.987 96.7533 568.363 92.05 567.117 88.31C565.87 84.4567 563.83 81.6233 560.997 79.81C558.277 77.8833 554.537 76.92 549.777 76.92C545.357 76.92 541.73 77.94 538.897 79.98C536.063 82.02 533.967 84.9667 532.607 88.82C531.247 92.6733 530.567 97.32 530.567 102.76V105.65C530.567 109.617 530.963 113.243 531.757 116.53C532.55 119.703 533.683 122.423 535.157 124.69C536.743 126.957 538.727 128.713 541.107 129.96C543.487 131.093 546.377 131.66 549.777 131.66ZM610.534 46.49V26.09H634.164V46.49H610.534ZM610.534 149V59.58H634.164V149H610.534ZM687.477 151.04C680.11 151.04 673.707 149.397 668.267 146.11C662.94 142.71 658.803 137.553 655.857 130.64C652.91 123.727 651.437 114.887 651.437 104.12C651.437 93.3533 652.91 84.57 655.857 77.77C658.917 70.8567 663.053 65.7567 668.267 62.47C673.593 59.1833 679.713 57.54 686.627 57.54C690.48 57.54 694.05 57.9933 697.337 58.9C700.737 59.6933 703.683 60.9967 706.177 62.81C708.783 64.6233 710.993 66.8333 712.807 69.44H713.827V26.09H737.457V149H718.077L716.207 136.93H715.017C712.07 141.69 708.217 145.26 703.457 147.64C698.697 149.907 693.37 151.04 687.477 151.04ZM694.957 131.66C699.377 131.66 702.947 130.64 705.667 128.6C708.5 126.56 710.597 123.613 711.957 119.76C713.317 115.907 713.997 111.317 713.997 105.99V102.93C713.997 98.9633 713.6 95.3367 712.807 92.05C712.127 88.7633 710.993 86.0433 709.407 83.89C707.82 81.6233 705.837 79.9233 703.457 78.79C701.077 77.5433 698.243 76.92 694.957 76.92C690.197 76.92 686.4 77.8833 683.567 79.81C680.733 81.6233 678.693 84.4567 677.447 88.31C676.2 92.05 675.577 96.7533 675.577 102.42V106.33C675.577 111.997 676.2 116.7 677.447 120.44C678.693 124.18 680.733 127.013 683.567 128.94C686.4 130.753 690.197 131.66 694.957 131.66Z" fill="white"></path>
  <rect x="45" y="49" width="112" height="88" fill="white"></rect>
  <path d="M15.1689 136.189C15.1689 105.095 15.1689 74.7974 15.1689 43.7028C15.1689 42.1083 15.9673 40.5137 16.7657 38.9191C20.7577 32.5407 26.3464 28.5542 33.5318 28.5542C77.4431 28.5542 120.556 28.5542 164.467 28.5542C166.064 28.5542 167.661 28.5542 169.258 29.3515C178.04 31.7434 183.629 38.1218 183.629 46.0947C183.629 75.5947 183.629 104.297 183.629 133.797C183.629 136.987 182.83 140.176 180.435 142.568C176.443 148.149 170.056 151.338 162.871 151.338C150.096 151.338 137.322 151.338 125.346 151.338C123.75 151.338 122.951 151.338 122.153 152.135C115.766 157.716 109.379 163.297 102.992 169.676C101.395 171.27 99.798 172.865 98.2012 173.662C97.4028 172.865 97.4028 172.865 96.6044 172.865C89.419 165.689 81.4351 159.311 74.2496 152.135C73.4512 151.338 72.6528 150.541 71.056 150.541C58.2818 150.541 45.5077 150.541 31.9351 150.541C26.3464 150.541 21.556 148.149 17.5641 144.162C16.7657 142.568 15.9673 139.379 15.1689 136.189ZM97.4028 128.216C98.2012 128.216 98.2012 128.216 97.4028 128.216C109.379 118.649 120.556 109.081 131.733 99.5137C137.322 94.7299 139.717 87.5542 138.919 80.3785C138.121 70.811 130.935 63.6353 122.951 62.0407C114.169 59.6488 105.387 62.838 99.798 70.0137L98.9996 70.811L98.2012 70.0137C92.6125 62.838 85.427 59.6488 76.6448 61.2434C67.8625 62.838 62.2738 68.4191 59.8786 76.392C57.4835 85.1623 59.8786 92.338 66.2657 98.7164C71.8544 104.297 78.2415 109.879 83.8302 114.662C88.6206 119.446 92.6125 124.23 97.4028 128.216Z" fill="#EE137D"></path>
</svg>
